<svg xmlns="http://www.w3.org/2000/svg" viewBox="0 0 1600 900" role="img" aria-labelledby="title desc">
  <title id="title">Песчаные дюны</title><desc id="desc">Стилизованный пустынный пейзаж на закате</desc>
  <defs><linearGradient id="s" x1="0" y1="0" x2="0" y2="1"><stop stop-color="#512e5f"/><stop offset=".55" stop-color="#d76f60"/><stop offset="1" stop-color="#f9c581"/></linearGradient><linearGradient id="d" x1="0" y1="0" x2="1" y2="1"><stop stop-color="#f4b56e"/><stop offset="1" stop-color="#af573d"/></linearGradient></defs>
  <path fill="url(#s)" d="M0 0h1600v900H0z"/><circle cx="1180" cy="302" r="128" fill="#ffd890" opacity=".95"/>
  <path fill="#d98257" d="M0 591q284-198 612 9t988-64v364H0z"/>
  <path fill="url(#d)" d="M0 729q423-237 810-64t790-37v272H0z"/>
  <path fill="#713d38" opacity=".48" d="M0 822q367-77 728 12t872-65v131H0z"/>
  <path fill="#5a3433" d="M495 600h13v117h-13z"/><path fill="#5a3433" d="M454 640h47v12h-47zm53-31h42v12h-42z"/>
  <path fill="#5a3433" d="M1320 540h10v96h-10zm-32 36h37v10h-37zm41-24h34v10h-34z"/>
</svg>
